<svg width="32" height="32" viewBox="0 0 32 32" fill="none" xmlns="http://www.w3.org/2000/svg">
<path d="M16 31C24.2843 31 31 24.2843 31 16C31 7.71573 24.2843 1 16 1C7.71573 1 1 7.71573 1 16C1 24.2843 7.71573 31 16 31Z" fill="white"/>
<path d="M16 31.5C24.5604 31.5 31.5 24.5604 31.5 16C31.5 7.43959 24.5604 0.5 16 0.5C7.43959 0.5 0.5 7.43959 0.5 16C0.5 24.5604 7.43959 31.5 16 31.5Z" stroke="#05183D" stroke-opacity="0.1"/>
<path d="M16.1264 6.43235L22.8506 9.48325C23.1469 9.61771 23.1686 10.0116 22.8887 10.1749L18.8098 15.0415L22.8506 16.8749C23.1469 17.0094 23.1686 17.4033 22.8887 17.5666L16.1505 25.606L9.11753 17.7946C8.83734 17.6375 8.84817 17.2481 9.13671 17.1054L13.2984 15.0467L9.11753 10.403C8.83734 10.2459 8.84817 9.85649 9.13671 9.71375L15.7578 6.43839C15.8729 6.38146 16.0094 6.37923 16.1264 6.43235Z" fill="white"/>
<path fill-rule="evenodd" clip-rule="evenodd" d="M23.0285 9.1275L16.3044 6.07661C16.0702 5.97037 15.7973 5.97484 15.5671 6.08869L8.94602 9.36405C8.39285 9.6377 8.35002 10.3647 8.84105 10.7011L12.6448 14.926L8.94602 16.7557C8.39285 17.0294 8.35002 17.7563 8.84105 18.0928L15.8364 25.8625C15.9167 25.9516 16.0345 26.002 16.1577 25.9999C16.281 25.9979 16.3969 25.9436 16.4738 25.8518L23.1741 17.8576C23.6598 17.5088 23.5956 16.7765 23.0285 16.5191L19.4583 14.8993L23.1741 10.466C23.6598 10.1171 23.5956 9.38484 23.0285 9.1275ZM18.9283 15.5317L16.4738 18.4602C16.3969 18.5519 16.281 18.6062 16.1577 18.6083C16.0345 18.6104 15.9167 18.56 15.8364 18.4708L13.198 15.5403L9.32738 17.455L15.9363 21.1602L22.6726 17.2306L18.9283 15.5317ZM15.5166 14.4477L11.0492 11.9431L16.1391 17.5964L21.0951 11.6832L16.3684 14.4406C16.1076 14.5928 15.78 14.5954 15.5166 14.4477ZM15.9485 6.78802L22.6726 9.83892L15.9363 13.7686L9.32738 10.0634L15.9485 6.78802ZM16.3685 21.8323L21.0951 19.0749L16.1391 24.988L11.0492 19.3347L15.5166 21.8394C15.78 21.987 16.1077 21.9844 16.3685 21.8323Z" fill="black"/>
</svg>
